<svg xmlns="http://www.w3.org/2000/svg" width="70.713" height="70.713" viewBox="0 0 70.713 70.713">
  <g id="Group_6994" data-name="Group 6994" transform="translate(7234.41 -7534.223) rotate(45)">
    <path id="Path_1702" data-name="Path 1702" d="M9.044,18.087a9.044,9.044,0,1,1,9.044-9.044,9.043,9.043,0,0,1-9.044,9.044" transform="translate(262.001 10392.999) rotate(45)" fill="#0e0071"/>
    <path id="Path_1703" data-name="Path 1703" d="M9.044,18.087a9.044,9.044,0,1,1,9.044-9.044,9.043,9.043,0,0,1-9.044,9.044" transform="translate(299.212 10430.211) rotate(45)" fill="#0e0071"/>
    <path id="Path_1704" data-name="Path 1704" d="M9.044,18.087a9.044,9.044,0,1,1,9.044-9.044,9.043,9.043,0,0,1-9.044,9.044" transform="translate(280.607 10411.605) rotate(45)" fill="#0e0071"/>
    <path id="Path_1705" data-name="Path 1705" d="M9.044,18.087a9.044,9.044,0,1,1,9.044-9.044,9.043,9.043,0,0,1-9.044,9.044" transform="translate(224.79 10430.211) rotate(45)" fill="#0e0071"/>
    <path id="Path_1706" data-name="Path 1706" d="M9.044,18.087a9.044,9.044,0,1,1,9.044-9.044,9.043,9.043,0,0,1-9.044,9.044" transform="translate(243.396 10411.605) rotate(45)" fill="#0e0071"/>
    <path id="Path_1707" data-name="Path 1707" d="M9.044,18.087a9.044,9.044,0,1,1,9.044-9.044,9.043,9.043,0,0,1-9.044,9.044" transform="translate(243.396 10448.816) rotate(45)" fill="#0e0071"/>
    <path id="Path_1708" data-name="Path 1708" d="M9.044,18.087a9.044,9.044,0,1,1,9.044-9.044,9.043,9.043,0,0,1-9.044,9.044" transform="translate(262.001 10467.422) rotate(45)" fill="#0e0071"/>
    <path id="Path_1709" data-name="Path 1709" d="M9.044,18.087a9.044,9.044,0,1,1,9.044-9.044,9.043,9.043,0,0,1-9.044,9.044" transform="translate(280.607 10448.816) rotate(45)" fill="#0e0071"/>
    <path id="Path_1710" data-name="Path 1710" d="M5.948,11.9A5.948,5.948,0,1,1,11.9,5.948,5.949,5.949,0,0,1,5.948,11.9" transform="translate(262.001 10434.587) rotate(45)" fill="#0070fc"/>
  </g>
</svg>
